<svg width="70" height="70" viewBox="0 0 70 70" fill="none" xmlns="http://www.w3.org/2000/svg">
<g filter="url(#filter0_d_1455_54014)">
<path d="M51.803 21.7999C51.803 31.0783 44.2814 38.5999 35.0031 38.5999C25.7247 38.5999 18.2031 31.0783 18.2031 21.7999C18.2031 12.5216 25.7247 5 35.0031 5C44.2814 5 51.803 12.5216 51.803 21.7999Z" fill="white"/>
</g>
<path d="M40.2531 25.0707C40.2531 26.4674 39.7 27.8069 38.7154 28.7945C37.7309 29.7821 36.3955 30.337 35.0031 30.337C33.6107 30.337 32.2754 29.7821 31.2908 28.7945C30.3063 27.8069 29.7531 26.4674 29.7531 25.0707C29.7531 24.7706 29.7846 24.4774 29.8389 24.193H28.0031V31.2094C28.0031 31.6974 28.3969 32.0924 28.8834 32.0924H41.1246C41.3578 32.0919 41.5812 31.9987 41.7459 31.8332C41.9106 31.6676 42.0031 31.4433 42.0031 31.2094V24.193H40.1674C40.2216 24.4774 40.2531 24.7706 40.2531 25.0707ZM35.0031 28.5816C35.4629 28.5815 35.9181 28.4905 36.3428 28.3139C36.7675 28.1373 37.1534 27.8786 37.4784 27.5524C37.8034 27.2262 38.0611 26.839 38.237 26.4129C38.4128 25.9868 38.5032 25.5301 38.5031 25.069C38.503 24.6078 38.4123 24.1512 38.2363 23.7252C38.0603 23.2992 37.8023 22.9121 37.4771 22.5861C37.152 22.2601 36.766 22.0015 36.3412 21.8251C35.9164 21.6488 35.4611 21.558 35.0014 21.5582C34.0729 21.5584 33.1825 21.9286 32.5261 22.5873C31.8698 23.2461 31.5011 24.1394 31.5014 25.0707C31.5016 26.0021 31.8707 26.8952 32.5274 27.5536C33.1841 28.212 34.0746 28.5818 35.0031 28.5816ZM39.2031 21.3844H41.3014C41.4408 21.3844 41.5745 21.3289 41.6732 21.2302C41.772 21.1315 41.8277 20.9976 41.8281 20.8577V18.753C41.8281 18.6129 41.7726 18.4785 41.6738 18.3794C41.5751 18.2803 41.4411 18.2246 41.3014 18.2246H39.2031C39.0634 18.2246 38.9294 18.2803 38.8307 18.3794C38.7319 18.4785 38.6764 18.6129 38.6764 18.753V20.8577C38.6781 21.1474 38.9144 21.3844 39.2031 21.3844ZM35.0031 8.21875C30.5475 8.21875 26.2743 9.99422 23.1237 13.1546C19.9731 16.3149 18.2031 20.6013 18.2031 25.0707C18.2031 29.5402 19.9731 33.8265 23.1237 36.9869C26.2743 40.1473 30.5475 41.9227 35.0031 41.9227C37.2093 41.9227 39.3939 41.4868 41.4322 40.6399C43.4705 39.7931 45.3225 38.5517 46.8825 36.9869C48.4425 35.422 49.68 33.5643 50.5243 31.5197C51.3686 29.4751 51.8031 27.2838 51.8031 25.0707C51.8031 22.8577 51.3686 20.6663 50.5243 18.6218C49.68 16.5772 48.4425 14.7194 46.8825 13.1546C45.3225 11.5897 43.4705 10.3484 41.4322 9.50153C39.3939 8.65464 37.2093 8.21875 35.0031 8.21875ZM43.7531 31.8975C43.7531 32.9701 42.8781 33.8478 41.8089 33.8478H28.1974C27.1281 33.8478 26.2531 32.9701 26.2531 31.8975V18.2439C26.2531 17.1714 27.1281 16.2937 28.1974 16.2937H41.8089C42.8781 16.2937 43.7531 17.1714 43.7531 18.2439V31.8975Z" fill="url(#paint0_linear_1455_54014)"/>
<defs>
<filter id="filter0_d_1455_54014" x="0.203125" y="0" width="69.6016" height="69.6016" filterUnits="userSpaceOnUse" color-interpolation-filters="sRGB">
<feFlood flood-opacity="0" result="BackgroundImageFix"/>
<feColorMatrix in="SourceAlpha" type="matrix" values="0 0 0 0 0 0 0 0 0 0 0 0 0 0 0 0 0 0 127 0" result="hardAlpha"/>
<feOffset dy="13"/>
<feGaussianBlur stdDeviation="9"/>
<feColorMatrix type="matrix" values="0 0 0 0 0.0658854 0 0 0 0 0.0730469 0 0 0 0 0.1375 0 0 0 0.08 0"/>
<feBlend mode="normal" in2="BackgroundImageFix" result="effect1_dropShadow_1455_54014"/>
<feBlend mode="normal" in="SourceGraphic" in2="effect1_dropShadow_1455_54014" result="shape"/>
</filter>
<linearGradient id="paint0_linear_1455_54014" x1="18.2031" y1="25.2173" x2="51.8031" y2="25.2173" gradientUnits="userSpaceOnUse">
<stop stop-color="#5B24C6"/>
<stop offset="0.479167" stop-color="#8949E1"/>
<stop offset="1" stop-color="#B971FF"/>
</linearGradient>
</defs>
</svg>
