<svg width="71" height="70" viewBox="0 0 71 70" fill="none" xmlns="http://www.w3.org/2000/svg">
<g filter="url(#filter0_d_1455_54011)">
<path d="M52.2014 21.7999C52.2014 31.0783 44.6799 38.5999 35.4015 38.5999C26.1232 38.5999 18.6016 31.0783 18.6016 21.7999C18.6016 12.5216 26.1232 5 35.4015 5C44.6799 5 52.2014 12.5216 52.2014 21.7999Z" fill="white"/>
</g>
<path d="M35.4016 8.21875C26.1231 8.21875 18.6016 15.7635 18.6016 25.0707C18.6016 34.3779 26.1231 41.9227 35.4016 41.9227C44.6801 41.9227 52.2016 34.3779 52.2016 25.0707C52.2016 15.7635 44.6801 8.21875 35.4016 8.21875ZM42.2353 22.0233C42.2423 22.1673 42.2441 22.3112 42.2441 22.4517C42.2441 26.8402 38.9173 31.8975 32.8308 31.8975C31.0323 31.9005 29.2713 31.3824 27.7593 30.4054C28.0166 30.437 28.2808 30.4493 28.5486 30.4493C30.0991 30.4493 31.5253 29.9209 32.6576 29.0292C31.9676 29.0156 31.299 28.7864 30.745 28.3736C30.191 27.9607 29.7793 27.3848 29.5671 26.7261C30.0626 26.8206 30.5731 26.8008 31.0598 26.6682C30.3109 26.5163 29.6374 26.1092 29.1536 25.516C28.6697 24.9228 28.4053 24.1801 28.4051 23.4136V23.3733C28.8513 23.6208 29.3623 23.7717 29.9048 23.7893C29.2027 23.3205 28.7057 22.6003 28.5154 21.7761C28.3251 20.9518 28.4559 20.0858 28.8811 19.3551C29.7122 20.3803 30.7488 21.2189 31.9236 21.8167C33.0983 22.4146 34.3852 22.7583 35.7008 22.8256C35.5336 22.1134 35.6055 21.3658 35.9056 20.6989C36.2056 20.032 36.7169 19.4832 37.3599 19.1379C38.003 18.7926 38.7417 18.67 39.4614 18.7893C40.181 18.9086 40.8412 19.263 41.3393 19.7975C42.0799 19.6505 42.79 19.378 43.4393 18.9917C43.1925 19.7608 42.6757 20.4139 41.9851 20.8297C42.641 20.7504 43.2816 20.5735 43.8856 20.3048C43.4419 20.9717 42.8831 21.5537 42.2353 22.0233Z" fill="url(#paint0_linear_1455_54011)"/>
<defs>
<filter id="filter0_d_1455_54011" x="0.601562" y="0" width="69.6016" height="69.6016" filterUnits="userSpaceOnUse" color-interpolation-filters="sRGB">
<feFlood flood-opacity="0" result="BackgroundImageFix"/>
<feColorMatrix in="SourceAlpha" type="matrix" values="0 0 0 0 0 0 0 0 0 0 0 0 0 0 0 0 0 0 127 0" result="hardAlpha"/>
<feOffset dy="13"/>
<feGaussianBlur stdDeviation="9"/>
<feColorMatrix type="matrix" values="0 0 0 0 0.0658854 0 0 0 0 0.0730469 0 0 0 0 0.1375 0 0 0 0.08 0"/>
<feBlend mode="normal" in2="BackgroundImageFix" result="effect1_dropShadow_1455_54011"/>
<feBlend mode="normal" in="SourceGraphic" in2="effect1_dropShadow_1455_54011" result="shape"/>
</filter>
<linearGradient id="paint0_linear_1455_54011" x1="18.6016" y1="25.2173" x2="52.2016" y2="25.2173" gradientUnits="userSpaceOnUse">
<stop stop-color="#5B24C6"/>
<stop offset="0.479167" stop-color="#8949E1"/>
<stop offset="1" stop-color="#B971FF"/>
</linearGradient>
</defs>
</svg>
